<svg width="1330" height="148" viewBox="0 0 1330 148" fill="none" xmlns="http://www.w3.org/2000/svg">
<path d="M112.34 141.555C112.34 142.401 111.298 143.703 109.215 145.461C107.132 147.154 105.341 148 103.844 148H78.6484C71.2917 134.654 61.4609 119.452 49.1562 102.395C36.9167 85.3372 25.7513 71.0469 15.6602 59.5234C16.5065 52.5573 17.8086 39.862 19.5664 21.4375C19.7617 20.526 20.8685 19.2565 22.8867 17.6289C24.9701 15.9362 26.6953 15.0898 28.0625 15.0898H53.5508C62.2096 30.3242 71.4544 44.7448 81.2852 58.3516C91.181 71.9583 102.704 86.8021 115.855 102.883C114.163 118.508 112.991 131.398 112.34 141.555ZM110.68 85.793C107.555 69.7122 104.69 57.082 102.086 47.9023C99.5469 38.6576 96.0964 29.8359 91.7344 21.4375C91.7344 20.5911 92.776 19.3216 94.8594 17.6289C97.0078 15.9362 98.8633 15.0898 100.426 15.0898H131.48C127.118 33.9049 123.049 55.2917 119.273 79.25C119.273 80.1615 118.232 81.4961 116.148 83.2539C114.065 84.9466 112.242 85.793 110.68 85.793ZM20.9336 78.5664C22.6263 92.2383 24.9375 103.697 27.8672 112.941C30.7969 122.121 34.8659 131.659 40.0742 141.555C40.0742 142.401 39.0326 143.703 36.9492 145.461C34.8659 147.154 33.043 148 31.4805 148H0.425781C4.78776 129.055 8.75911 108.059 12.3398 85.0117C12.3398 84.1654 13.3815 82.8958 15.4648 81.2031C17.6133 79.4453 19.4362 78.5664 20.9336 78.5664ZM231.926 50.9297C240.78 53.9896 247.486 58.2865 252.043 63.8203C256.665 69.2891 258.977 75.1484 258.977 81.3984C258.977 89.9271 255.298 97.1536 247.941 103.078C240.585 109.003 230.559 111.965 217.863 111.965C213.892 111.965 209.53 111.314 204.777 110.012C211.678 105.715 216.333 100.116 218.742 93.2148C220.826 87.2253 221.867 80.194 221.867 72.1211C221.867 70.5586 221.704 65.7734 221.379 57.7656C221.314 56.9193 222.616 55.5846 225.285 53.7617C228.02 51.9388 230.233 50.9948 231.926 50.9297ZM216.105 49.3672C208.033 54.8359 201.62 62.0299 196.867 70.9492C192.18 79.8685 189.836 89.4062 189.836 99.5625C189.836 109.719 193.742 117.987 201.555 124.367C209.367 130.747 220.76 133.938 235.734 133.938C239.836 133.938 244.23 133.579 248.918 132.863C245.858 137.681 239.966 141.717 231.242 144.973C222.518 148.163 213.371 149.758 203.801 149.758C194.23 149.758 186.06 148.814 179.289 146.926C172.518 144.973 166.464 142.108 161.125 138.332C155.852 134.556 151.685 129.641 148.625 123.586C145.565 117.466 144.035 110.76 144.035 103.469C144.035 96.112 145.174 89.4714 147.453 83.5469C149.732 77.6224 152.857 72.5443 156.828 68.3125C160.799 64.0807 165.422 60.4349 170.695 57.375C181.177 51.4505 193.254 48.4883 206.926 48.4883C210.311 48.4883 213.371 48.7812 216.105 49.3672ZM367.43 148H322.996C316.941 130.161 307.534 108.71 294.773 83.6445C288.263 70.9492 283.771 61.9974 281.297 56.7891C281.297 55.9427 282.339 54.6732 284.422 52.9805C286.57 51.2227 288.361 50.3438 289.793 50.3438H334.324C340.053 68.2474 349.331 89.5365 362.156 114.211C368.667 126.776 373.289 135.891 376.023 141.555C376.023 142.466 374.982 143.768 372.898 145.461C370.815 147.154 368.992 148 367.43 148ZM355.613 88.0391C357.566 82.5703 358.543 76.5482 358.543 69.9727C358.543 63.332 357.892 58.9375 356.59 56.7891C356.655 55.8776 357.762 54.5755 359.91 52.8828C362.059 51.1901 363.914 50.3438 365.477 50.3438H396.727C394.708 52.2318 391.811 54.8359 388.035 58.1562C384.259 61.4766 381.46 63.9831 379.637 65.6758C374.624 70.2982 370.262 75.6042 366.551 81.5938C365.965 82.5052 364.337 83.8073 361.668 85.5C359.064 87.1927 357.046 88.0391 355.613 88.0391ZM299.363 104.348C296.434 111.314 294.969 118.247 294.969 125.148C294.969 131.984 295.848 137.453 297.605 141.555C297.54 142.401 296.368 143.703 294.09 145.461C291.876 147.154 290.021 148 288.523 148H257.469C264.435 140.969 270.262 134.686 274.949 129.152C279.637 123.618 283.999 117.466 288.035 110.695C288.556 109.784 290.184 108.514 292.918 106.887C295.717 105.194 297.866 104.348 299.363 104.348ZM476.078 142.043C462.732 146.34 449.418 148.488 436.137 148.488C410.551 148.488 397.758 138.299 397.758 117.922C397.758 113.495 398.702 104.673 400.59 91.457C402.478 78.1758 403.422 69.0286 403.422 64.0156C403.422 58.9375 403.194 55.0638 402.738 52.3945C411.658 48.4232 419.503 43.931 426.273 38.918C433.044 33.9049 439.62 27.7526 446 20.4609C449.255 19.4844 453.487 18.9961 458.695 18.9961C454.333 34.3607 450.85 50.1484 448.246 66.3594C445.707 82.5703 444.438 94.5495 444.438 102.297C444.438 109.979 444.991 115.546 446.098 118.996C447.204 122.382 448.995 125.018 451.469 126.906C455.831 130.227 462.732 131.887 472.172 131.887C474.451 131.887 476.859 131.789 479.398 131.594C478.812 135.891 477.706 139.374 476.078 142.043ZM458.988 74.1719C459.574 65.1224 461.039 56.724 463.383 48.9766C469.763 51.6458 476.892 53.5339 484.77 54.6406C485.29 55.6172 485.779 57.2448 486.234 59.5234C486.69 61.737 486.918 63.4948 486.918 64.7969C477.868 67.2708 468.559 70.3958 458.988 74.1719ZM688.688 148H645.621C646.012 131.984 646.207 115.676 646.207 99.0742C646.207 82.4727 645.393 63.625 643.766 42.5312C645.979 37.9089 649.072 30.8776 653.043 21.4375C653.499 20.3958 654.671 19.0938 656.559 17.5312C658.447 15.9036 660.107 15.0898 661.539 15.0898H691.422C690.966 23.6836 690.738 33.2214 690.738 43.7031C690.738 76.5156 692.919 109.133 697.281 141.555C697.281 142.401 696.24 143.703 694.156 145.461C692.073 147.154 690.25 148 688.688 148ZM621.695 142.922C621.24 143.898 620.23 145.005 618.668 146.242C617.105 147.414 615.868 148 614.957 148H599.43C596.695 131.789 593.147 114.732 588.785 96.8281C584.423 78.9245 580.094 64.1784 575.797 52.5898C576.057 51.0924 576.904 46.5352 578.336 38.918C579.833 31.2357 580.875 25.4089 581.461 21.4375C581.656 20.526 582.763 19.2565 584.781 17.6289C586.799 15.9362 588.525 15.0898 589.957 15.0898H618.375C622.867 41.1315 626.578 58.7422 629.508 67.9219C632.503 77.0365 635.237 84.3281 637.711 89.7969C631.461 108.482 626.122 126.19 621.695 142.922ZM573.648 77.3945C573.974 93.6706 574.56 106.105 575.406 114.699C576.318 123.293 578.238 132.245 581.168 141.555C581.168 142.401 580.094 143.703 577.945 145.461C575.862 147.154 574.039 148 572.477 148H541.324C547.77 132.635 552.815 120.201 556.461 110.695C560.107 101.125 563.004 92.1406 565.152 83.7422C565.152 82.8958 566.194 81.6263 568.277 79.9336C570.361 78.2409 572.151 77.3945 573.648 77.3945ZM830.441 144.094C817.746 146.828 804.107 148.195 789.523 148.195C786.203 143.703 784.543 138.983 784.543 134.035C784.543 129.087 786.008 116.555 788.938 96.4375C791.867 76.2552 793.365 62.8438 793.43 56.2031C793.43 55.3568 794.504 54.0872 796.652 52.3945C798.801 50.7018 800.591 49.8555 802.023 49.8555C815.956 49.8555 829.074 51.7109 841.379 55.4219C841.118 57.5052 839.393 65.806 836.203 80.3242C833.013 94.7773 831.418 106.398 831.418 115.188C831.418 123.911 833.762 130.617 838.449 135.305C838.449 136.216 837.538 137.746 835.715 139.895C833.892 141.978 832.134 143.378 830.441 144.094ZM785.227 48.4883C777.479 54.2174 771.587 61.9974 767.551 71.8281C763.579 81.6589 761.594 91.3268 761.594 100.832C761.594 110.272 762.635 118.768 764.719 126.32C766.867 133.807 769.732 138.82 773.312 141.359C773.312 142.336 772.271 143.703 770.188 145.461C768.104 147.154 766.314 148 764.816 148C749.908 148 737.928 144.257 728.879 136.77C719.895 129.283 715.402 119.061 715.402 106.105C715.402 90.0247 721.49 76.5156 733.664 65.5781C739.523 60.3047 746.88 56.138 755.734 53.0781C764.654 50.0182 774.484 48.4883 785.227 48.4883ZM953.738 48.4883C961.16 48.4883 964.871 53.1432 964.871 62.4531C964.871 68.2474 963.862 74.0417 961.844 79.8359C959.826 85.5651 957.286 89.9596 954.227 93.0195C949.93 90.0247 944.624 87.5508 938.309 85.5977C932.059 83.5794 926.069 82.4727 920.34 82.2773C920.861 78.6966 921.902 74.888 923.465 70.8516C933.947 55.9427 944.038 48.4883 953.738 48.4883ZM895.242 148H854.324C860.965 119.615 865.652 89.5039 868.387 57.668C868.387 56.9518 869.428 55.7799 871.512 54.1523C873.66 52.5247 875.841 51.5156 878.055 51.125C880.333 50.7344 886.16 50.2135 895.535 49.5625C904.975 48.8464 912.202 48.4883 917.215 48.4883C910.77 80.7148 906.277 111.737 903.738 141.555C903.738 142.401 902.697 143.703 900.613 145.461C898.53 147.154 896.74 148 895.242 148ZM1089.05 112.16L1088.36 126.613C1088.36 129.673 1089.01 131.919 1090.32 133.352C1091.68 134.719 1093.96 135.402 1097.15 135.402C1096.5 139.439 1095.43 142.759 1093.93 145.363C1084.68 148.098 1075.02 149.465 1064.93 149.465C1054.83 149.465 1048.32 148.391 1045.39 146.242C1042.53 144.029 1041.1 141.132 1041.1 137.551C1041.1 133.905 1041.52 129.185 1042.37 123.391C1043.28 117.596 1043.73 113.007 1043.73 109.621C1043.73 103.632 1040.35 100.018 1033.58 98.7812C1034.16 95.5911 1035.27 93.0521 1036.9 91.1641C1043.15 89.276 1047.77 86.444 1050.77 82.668C1053.76 78.8919 1055.26 75.3112 1055.26 71.9258C1055.26 68.4753 1054.61 65.8385 1053.3 64.0156C1052 62.1276 1050.44 61.1836 1048.62 61.1836C1046.79 61.1836 1045 61.4766 1043.25 62.0625C1043.83 58.1562 1044.94 55.2266 1046.57 53.2734C1054.25 49.5625 1061.7 47.707 1068.93 47.707C1076.22 47.707 1081.98 49.3346 1086.21 52.5898C1090.45 55.8451 1092.56 60.0117 1092.56 65.0898C1092.56 70.1029 1091.42 74.3346 1089.14 77.7852C1086.93 81.1706 1083.97 83.9375 1080.26 86.0859C1072.97 90.4479 1064.6 93.0846 1055.16 93.9961C1066.23 93.9961 1074.63 95.5911 1080.36 98.7812C1086.15 101.971 1089.05 106.431 1089.05 112.16ZM1020.69 141.359C1020.69 142.271 1019.65 143.605 1017.56 145.363C1015.48 147.121 1013.66 148 1012.09 148H971.859C974.724 135.76 978.012 115.318 981.723 86.6719C985.499 58.026 988.103 35.5651 989.535 19.2891C989.535 18.4427 990.577 17.1732 992.66 15.4805C994.743 13.7227 996.534 12.8438 998.031 12.8438H1039.14C1035.69 27.1667 1032.11 47.8372 1028.4 74.8555C1024.69 101.809 1022.12 123.977 1020.69 141.359ZM1201.31 50.9297C1210.16 53.9896 1216.87 58.2865 1221.43 63.8203C1226.05 69.2891 1228.36 75.1484 1228.36 81.3984C1228.36 89.9271 1224.68 97.1536 1217.32 103.078C1209.97 109.003 1199.94 111.965 1187.25 111.965C1183.27 111.965 1178.91 111.314 1174.16 110.012C1181.06 105.715 1185.72 100.116 1188.12 93.2148C1190.21 87.2253 1191.25 80.194 1191.25 72.1211C1191.25 70.5586 1191.09 65.7734 1190.76 57.7656C1190.7 56.9193 1192 55.5846 1194.67 53.7617C1197.4 51.9388 1199.62 50.9948 1201.31 50.9297ZM1185.49 49.3672C1177.42 54.8359 1171 62.0299 1166.25 70.9492C1161.56 79.8685 1159.22 89.4062 1159.22 99.5625C1159.22 109.719 1163.12 117.987 1170.94 124.367C1178.75 130.747 1190.14 133.938 1205.12 133.938C1209.22 133.938 1213.61 133.579 1218.3 132.863C1215.24 137.681 1209.35 141.717 1200.62 144.973C1191.9 148.163 1182.75 149.758 1173.18 149.758C1163.61 149.758 1155.44 148.814 1148.67 146.926C1141.9 144.973 1135.85 142.108 1130.51 138.332C1125.23 134.556 1121.07 129.641 1118.01 123.586C1114.95 117.466 1113.42 110.76 1113.42 103.469C1113.42 96.112 1114.56 89.4714 1116.84 83.5469C1119.11 77.6224 1122.24 72.5443 1126.21 68.3125C1130.18 64.0807 1134.8 60.4349 1140.08 57.375C1150.56 51.4505 1162.64 48.4883 1176.31 48.4883C1179.69 48.4883 1182.75 48.7812 1185.49 49.3672ZM1318.06 142.043C1304.72 146.34 1291.4 148.488 1278.12 148.488C1252.54 148.488 1239.74 138.299 1239.74 117.922C1239.74 113.495 1240.69 104.673 1242.57 91.457C1244.46 78.1758 1245.41 69.0286 1245.41 64.0156C1245.41 58.9375 1245.18 55.0638 1244.72 52.3945C1253.64 48.4232 1261.49 43.931 1268.26 38.918C1275.03 33.9049 1281.6 27.7526 1287.98 20.4609C1291.24 19.4844 1295.47 18.9961 1300.68 18.9961C1296.32 34.3607 1292.83 50.1484 1290.23 66.3594C1287.69 82.5703 1286.42 94.5495 1286.42 102.297C1286.42 109.979 1286.98 115.546 1288.08 118.996C1289.19 122.382 1290.98 125.018 1293.45 126.906C1297.82 130.227 1304.72 131.887 1314.16 131.887C1316.43 131.887 1318.84 131.789 1321.38 131.594C1320.8 135.891 1319.69 139.374 1318.06 142.043ZM1300.97 74.1719C1301.56 65.1224 1303.02 56.724 1305.37 48.9766C1311.75 51.6458 1318.88 53.5339 1326.75 54.6406C1327.27 55.6172 1327.76 57.2448 1328.22 59.5234C1328.67 61.737 1328.9 63.4948 1328.9 64.7969C1319.85 67.2708 1310.54 70.3958 1300.97 74.1719Z" fill="url(#paint0_linear_2438_2399)"/>
<defs>
<linearGradient id="paint0_linear_2438_2399" x1="1330" y1="-38" x2="76.2609" y2="384.688" gradientUnits="userSpaceOnUse">
<stop stop-color="#FFD873"/>
<stop offset="0.171875" stop-color="#FF63A4"/>
<stop offset="0.921875" stop-color="#FF63A4"/>
<stop offset="1" stop-color="#FFD873"/>
</linearGradient>
</defs>
</svg>
